<?xml version="1.0" encoding="utf-8"?>
<!-- Generator: Adobe Illustrator 16.0.0, SVG Export Plug-In . SVG Version: 6.00 Build 0)  -->
<!DOCTYPE svg PUBLIC "-//W3C//DTD SVG 1.1//EN" "http://www.w3.org/Graphics/SVG/1.1/DTD/svg11.dtd">
<svg version="1.1" xmlns="http://www.w3.org/2000/svg" xmlns:xlink="http://www.w3.org/1999/xlink" x="0px" y="0px"
	 width="361.8330078px" height="203.284668px" viewBox="0 0 361.8330078 203.284668"
	 enable-background="new 0 0 361.8330078 203.284668" xml:space="preserve">
<g id="Layer_3">
	<g>
		<g>
			<path fill="none" stroke="#FFFFFF" d="M123.8486328,93.9272461c-3.0136719,0-5.4082031-0.7099609-7.25-1.6376953
				c-2.5351563,1.0371094-5.1386719,1.5595703-7.796875,1.5595703c-6.1708984,0-10.1337891-2.6220703-12.3720703-4.8222656
				c-3.2548828-3.1992188-4.9755859-7.3808594-4.9755859-12.0917969c0-3.7294922,0.9384766-7.0869141,2.7900391-9.9794922
				c0.4130859-0.6464844,0.8623047-1.2705078,1.3457031-1.8730469c-2.1074219-2.4375-3.2568359-5.4853516-3.2568359-8.6943359
				c0-2.6894531,0.7587891-6.7294922,4.3740234-10.7089844c2.2177734-2.4384766,5.1132813-4.375,8.6103516-5.7578125
				c3.2402344-1.2822266,6.7900391-1.9316406,10.5507813-1.9316406c3.2275391,0,6.3154297,0.6445313,9.1767578,1.9169922
				c3.359375,1.4931641,6.0791016,3.8017578,8.0839844,6.8623047c2.0175781,3.0839844,3.0400391,6.6738281,3.0400391,10.6738281
				v13.6142578l7.34375,9.4833984l-5.5859375,6.2080078c-1.7226563,1.9150391-3.3759766,3.3916016-5.0566406,4.5146484
				C130.2636719,93.0063477,127.1445313,93.9272461,123.8486328,93.9272461z"/>
			<path fill="none" stroke="#FFFFFF" d="M123.3056641,92.7944336V70.6459961h5.0273438v-8.4228516l-5.0273438-1.6806641V44.9545898
				l19.5957031-6.9648438h13.4472656v0.1992188c3.1269531,0.5322266,5.9521484,2.1201172,8.1240234,4.6015625
				c2.4140625,2.7607422,3.6884766,6.2460938,3.6884766,10.0820313c0,3.5976563-1.0605469,6.9248047-3.0664063,9.6220703
				c-2.1806641,2.9296875-5.2939453,4.8115234-8.7460938,5.3417969v2.8095703h5.8359375v22.1484375H123.3056641z"/>
			<path fill="none" stroke="#FFFFFF" d="M180.6962891,93.8491211c-3.1572266,0-6.4169922-0.6933594-9.7412109-2.0664063
				l-2.9365234,1.9101563h-13.8808594V41.034668l-4.9912109-1.4853516l-0.0009766-15.9780273l19.9052734-7.2612305h13.2080078
				v21.6816406c0.1005859-0.0019531,0.2001953-0.0019531,0.3007813-0.0019531c3.4267578,0,6.7099609,0.7568359,9.7578125,2.2490234
				c2.9501953,1.4443359,5.5175781,3.4707031,7.6308594,6.0224609c2.0078125,2.4267578,3.5664063,5.3154297,4.6337891,8.5869141
				c1.0039063,3.0791016,1.5126953,6.421875,1.5126953,9.9384766c0,3.515625-0.5048828,6.9326172-1.4990234,10.15625
				c-1.0478516,3.3955078-2.6347656,6.5019531-4.7167969,9.2304688c-2.2548828,2.9550781-5.0332031,5.3125-8.2568359,7.0058594
				C188.2480469,92.9506836,184.5722656,93.8491211,180.6962891,93.8491211z"/>
			<path fill="none" stroke="#FFFFFF" d="M216.5205078,93.7709961c-4.7851563,0-9.2441406-1.2441406-13.2529297-3.6972656
				c-3.9726563-2.4306641-7.1337891-5.84375-9.3955078-10.1425781c-2.1748047-4.1337891-3.2773438-8.8212891-3.2773438-13.9335938
				c0-4.921875,1.0869141-9.5341797,3.2314453-13.7089844c2.2255859-4.3320313,5.3496094-7.8125,9.2841797-10.3447266
				c4.0810547-2.6240234,8.6386719-3.9541016,13.5507813-3.9541016c4.8320313,0,9.3242188,1.3056641,13.3496094,3.8798828
				c3.9091797,2.5009766,7.0029297,5.9472656,9.1972656,10.2441406c2.1025391,4.1191406,3.1679688,8.6845703,3.1679688,13.5712891
				c0,3.7011719-0.6279297,7.2792969-1.8681641,10.6337891c-1.2685547,3.4365234-3.0839844,6.4804688-5.3935547,9.0458984
				c-2.3603516,2.6230469-5.1376953,4.6904297-8.2519531,6.1425781
				C223.6386719,93.0092773,220.1591797,93.7709961,216.5205078,93.7709961z"/>
			<path fill="none" stroke="#FFFFFF" d="M226.1728516,92.7944336V70.6459961h4.4648438v-8.7998047l-4.4521484-1.5498047
				l-0.0126953-8.4003906v-7.0839844l19.4023438-6.8222656h13.0429688v0.0390625
				c0.4814453-0.0263672,0.96875-0.0390625,1.4609375-0.0390625c12.1191406,0,19.9492188,8.2333984,19.9492188,20.9765625
				v11.6796875h4.3945313v22.1484375H226.1728516z"/>
		</g>
		<g>
			<path fill="#FFFFFF" d="M123.8486328,93.9272461c-3.0136719,0-5.4082031-0.7099609-7.25-1.6376953
				c-2.5351563,1.0371094-5.1386719,1.5595703-7.796875,1.5595703c-6.1708984,0-10.1337891-2.6220703-12.3720703-4.8222656
				c-3.2548828-3.1992188-4.9755859-7.3808594-4.9755859-12.0917969c0-3.7294922,0.9384766-7.0869141,2.7900391-9.9794922
				c0.4130859-0.6464844,0.8623047-1.2705078,1.3457031-1.8730469c-2.1074219-2.4375-3.2568359-5.4853516-3.2568359-8.6943359
				c0-2.6894531,0.7587891-6.7294922,4.3740234-10.7089844c2.2177734-2.4384766,5.1132813-4.375,8.6103516-5.7578125
				c3.2402344-1.2822266,6.7900391-1.9316406,10.5507813-1.9316406c3.2275391,0,6.3154297,0.6445313,9.1767578,1.9169922
				c3.359375,1.4931641,6.0791016,3.8017578,8.0839844,6.8623047c2.0175781,3.0839844,3.0400391,6.6738281,3.0400391,10.6738281
				v13.6142578l7.34375,9.4833984l-5.5859375,6.2080078c-1.7226563,1.9150391-3.3759766,3.3916016-5.0566406,4.5146484
				C130.2636719,93.0063477,127.1445313,93.9272461,123.8486328,93.9272461z"/>
			<path fill="#FFFFFF" d="M123.3056641,92.7944336V70.6459961h5.0273438v-8.4228516l-5.0273438-1.6806641V44.9545898
				l19.5957031-6.9648438h13.4472656v0.1992188c3.1269531,0.5322266,5.9521484,2.1201172,8.1240234,4.6015625
				c2.4140625,2.7607422,3.6884766,6.2460938,3.6884766,10.0820313c0,3.5976563-1.0605469,6.9248047-3.0664063,9.6220703
				c-2.1806641,2.9296875-5.2939453,4.8115234-8.7460938,5.3417969v2.8095703h5.8359375v22.1484375H123.3056641z"/>
			<path fill="#FFFFFF" d="M180.6962891,93.8491211c-3.1572266,0-6.4169922-0.6933594-9.7412109-2.0664063l-2.9365234,1.9101563
				h-13.8808594V41.034668l-4.9912109-1.4853516l-0.0009766-15.9780273l19.9052734-7.2612305h13.2080078v21.6816406
				c0.1005859-0.0019531,0.2001953-0.0019531,0.3007813-0.0019531c3.4267578,0,6.7099609,0.7568359,9.7578125,2.2490234
				c2.9501953,1.4443359,5.5175781,3.4707031,7.6308594,6.0224609c2.0078125,2.4267578,3.5664063,5.3154297,4.6337891,8.5869141
				c1.0039063,3.0791016,1.5126953,6.421875,1.5126953,9.9384766c0,3.515625-0.5048828,6.9326172-1.4990234,10.15625
				c-1.0478516,3.3955078-2.6347656,6.5019531-4.7167969,9.2304688c-2.2548828,2.9550781-5.0332031,5.3125-8.2568359,7.0058594
				C188.2480469,92.9506836,184.5722656,93.8491211,180.6962891,93.8491211z"/>
			<path fill="#FFFFFF" d="M216.5205078,93.7709961c-4.7851563,0-9.2441406-1.2441406-13.2529297-3.6972656
				c-3.9726563-2.4306641-7.1337891-5.84375-9.3955078-10.1425781c-2.1748047-4.1337891-3.2773438-8.8212891-3.2773438-13.9335938
				c0-4.921875,1.0869141-9.5341797,3.2314453-13.7089844c2.2255859-4.3320313,5.3496094-7.8125,9.2841797-10.3447266
				c4.0810547-2.6240234,8.6386719-3.9541016,13.5507813-3.9541016c4.8320313,0,9.3242188,1.3056641,13.3496094,3.8798828
				c3.9091797,2.5009766,7.0029297,5.9472656,9.1972656,10.2441406c2.1025391,4.1191406,3.1679688,8.6845703,3.1679688,13.5712891
				c0,3.7011719-0.6279297,7.2792969-1.8681641,10.6337891c-1.2685547,3.4365234-3.0839844,6.4804688-5.3935547,9.0458984
				c-2.3603516,2.6230469-5.1376953,4.6904297-8.2519531,6.1425781
				C223.6386719,93.0092773,220.1591797,93.7709961,216.5205078,93.7709961z"/>
			<path fill="#FFFFFF" d="M226.1728516,92.7944336V70.6459961h4.4648438v-8.7998047l-4.4521484-1.5498047l-0.0126953-8.4003906
				v-7.0839844l19.4023438-6.8222656h13.0429688v0.0390625c0.4814453-0.0263672,0.96875-0.0390625,1.4609375-0.0390625
				c12.1191406,0,19.9492188,8.2333984,19.9492188,20.9765625v11.6796875h4.3945313v22.1484375H226.1728516z"/>
		</g>
	</g>
	<g>
		<g>
			<path fill="none" stroke="#FFFFFF" d="M159.7597656,167.1762695c-0.9335938,0.1044922-1.8710938,0.15625-2.8125,0.15625
				c-7.5556641,0-12.3496094-3.2070313-15.0400391-5.8974609c-2.6894531-2.6884766-5.8974609-7.5556641-5.8974609-15.4697266
				v-12.1669922l-5.2734375-0.8681641V112.137207h57.96875v30.234375h5.3125v20.4912109l-34.2578125,6.5703125V167.1762695z"/>
			<path fill="none" stroke="#FFFFFF" d="M200.6582031,167.3325195c-4.9931641,0-10.3623047-1.2207031-16.4121094-3.7333984
				l-6.1660156-2.5595703v-24.4599609c-0.4765625-1.8203125-0.625-3.4941406-0.625-4.8720703
				c0-5.8378906,2.3466797-10.9707031,6.7880859-14.8427734c4.1015625-3.5771484,9.3623047-5.3916016,15.6337891-5.3916016
				c2.7080078,0,5.3125,0.2978516,7.7421875,0.8857422c2.0488281,0.4970703,4.2939453,1.1982422,6.6787109,2.0839844
				l6.2275391,2.3144531l0.8310547,19.6953125c1.8193359,3.0078125,2.7392578,6.3095703,2.7392578,9.8251953
				c0,4.0488281-1.1728516,7.8144531-3.4853516,11.1943359c-2.1513672,3.1425781-5.078125,5.6240234-8.7011719,7.3769531
				C208.5029297,166.4975586,204.7177734,167.3325195,200.6582031,167.3325195z"/>
			<path fill="none" stroke="#FFFFFF" d="M229.4472656,167.3325195c-4.3017578,0-7.9658203-1.171875-10.8896484-3.4833984
				c-2.7597656-2.1806641-4.7490234-5.2050781-5.7470703-8.7431641c-0.6855469-2.4335938-1.0195313-5.1425781-1.0195313-8.28125
				v-12.2265625h-4.1796875v-16.9912109l3.9990234-3c2.1923828-1.6455078,3.8339844-2.90625,4.8789063-3.7490234
				c0.7246094-0.5839844,1.4296875-1.2578125,2.0986328-2.0029297c0.5703125-0.6357422,1.0556641-1.2929688,1.4414063-1.953125
				l2.8945313-4.9599609h17.8125v10.1953125h9.6875v22.4609375h-9.6875v2.5966797l13.5576172,14.2900391l-6.7050781,6.8867188
				c-2.578125,2.6474609-4.9951172,4.6328125-7.3896484,6.0703125
				C237.0009766,166.3608398,233.3837891,167.3325195,229.4472656,167.3325195z"/>
			<path fill="none" stroke="#FFFFFF" d="M260.0332031,167.3325195c-4.5839844,0-8.9169922-1.1259766-12.8789063-3.3476563
				c-4.1064453-2.3027344-7.3740234-5.6269531-9.7128906-9.8818359c-2.2451172-4.0810547-3.3847656-8.6865234-3.3847656-13.6845703
				c0-3.8144531,0.6601563-7.4824219,1.9638672-10.9033203c1.2998047-3.4150391,3.1503906-6.4892578,5.5-9.1357422
				c2.4335938-2.7402344,5.3134766-4.9150391,8.5585938-6.4648438c3.3896484-1.6201172,7.0419922-2.4414063,10.8525391-2.4414063
				c3.7851563,0,7.4453125,0.8007813,10.8779297,2.3798828c3.6884766,1.6972656,6.7041016,4.1347656,8.9677734,7.2460938
				c1.5527344,2.1308594,2.7138672,4.4189453,3.4433594,6.7900391c0.5791016,1.890625,1.0097656,3.9902344,1.3193359,6.4277344
				l1.1982422,9.4501953l1.6865234,1.3066406l-3.9912109,7.4501953c-1.7392578,3.2480469-3.9013672,6.0097656-6.4257813,8.2080078
				c-2.5742188,2.2412109-5.46875,3.9326172-8.6054688,5.0263672
				C266.4072266,166.8032227,263.2558594,167.3325195,260.0332031,167.3325195z"/>
			<path fill="none" stroke="#FFFFFF" d="M269.0957031,166.277832v-22.1484375h5.5859375v-8.1894531l-5.5859375-1.6806641
				v-16.0634766l21.0175781-6.7226563h13.4746094v0.0771484c3.4013672,0.3476563,6.5341797,1.8574219,8.9462891,4.3378906
				c2.7353516,2.8154297,4.1787109,6.4335938,4.1787109,10.4677734c0,3.7832031-1.2109375,7.2480469-3.5009766,10.0205078
				c-2.4736328,2.9912109-5.8574219,4.7578125-9.6240234,5.0527344v2.7001953h6.484375v22.1484375H269.0957031z"/>
			<path fill="none" stroke="#FFFFFF" d="M322.3769531,167.3325195c-4.9931641,0-10.3623047-1.2207031-16.4121094-3.7333984
				l-6.1660156-2.5595703v-24.4599609c-0.4765625-1.8203125-0.625-3.4941406-0.625-4.8720703
				c0-5.8378906,2.3466797-10.9707031,6.7880859-14.8427734c4.1015625-3.5771484,9.3623047-5.3916016,15.6337891-5.3916016
				c2.7080078,0,5.3125,0.2978516,7.7421875,0.8857422c2.0488281,0.4970703,4.2939453,1.1982422,6.6787109,2.0839844
				l6.2275391,2.3144531l0.8310547,19.6953125c1.8193359,3.0078125,2.7392578,6.3095703,2.7392578,9.8251953
				c0,4.0488281-1.1728516,7.8144531-3.4853516,11.1943359c-2.1513672,3.1425781-5.078125,5.6240234-8.7011719,7.3769531
				C330.2216797,166.4975586,326.4365234,167.3325195,322.3769531,167.3325195z"/>
		</g>
		<g>
			<path fill="#FFFFFF" d="M159.7597656,167.1762695c-0.9335938,0.1044922-1.8710938,0.15625-2.8125,0.15625
				c-7.5556641,0-12.3496094-3.2070313-15.0400391-5.8974609c-2.6894531-2.6884766-5.8974609-7.5556641-5.8974609-15.4697266
				v-12.1669922l-5.2734375-0.8681641V112.137207h57.96875v30.234375h5.3125v20.4912109l-34.2578125,6.5703125V167.1762695z"/>
			<path fill="#FFFFFF" d="M200.6582031,167.3325195c-4.9931641,0-10.3623047-1.2207031-16.4121094-3.7333984l-6.1660156-2.5595703
				v-24.4599609c-0.4765625-1.8203125-0.625-3.4941406-0.625-4.8720703c0-5.8378906,2.3466797-10.9707031,6.7880859-14.8427734
				c4.1015625-3.5771484,9.3623047-5.3916016,15.6337891-5.3916016c2.7080078,0,5.3125,0.2978516,7.7421875,0.8857422
				c2.0488281,0.4970703,4.2939453,1.1982422,6.6787109,2.0839844l6.2275391,2.3144531l0.8310547,19.6953125
				c1.8193359,3.0078125,2.7392578,6.3095703,2.7392578,9.8251953c0,4.0488281-1.1728516,7.8144531-3.4853516,11.1943359
				c-2.1513672,3.1425781-5.078125,5.6240234-8.7011719,7.3769531
				C208.5029297,166.4975586,204.7177734,167.3325195,200.6582031,167.3325195z"/>
			<path fill="#FFFFFF" d="M229.4472656,167.3325195c-4.3017578,0-7.9658203-1.171875-10.8896484-3.4833984
				c-2.7597656-2.1806641-4.7490234-5.2050781-5.7470703-8.7431641c-0.6855469-2.4335938-1.0195313-5.1425781-1.0195313-8.28125
				v-12.2265625h-4.1796875v-16.9912109l3.9990234-3c2.1923828-1.6455078,3.8339844-2.90625,4.8789063-3.7490234
				c0.7246094-0.5839844,1.4296875-1.2578125,2.0986328-2.0029297c0.5703125-0.6357422,1.0556641-1.2929688,1.4414063-1.953125
				l2.8945313-4.9599609h17.8125v10.1953125h9.6875v22.4609375h-9.6875v2.5966797l13.5576172,14.2900391l-6.7050781,6.8867188
				c-2.578125,2.6474609-4.9951172,4.6328125-7.3896484,6.0703125
				C237.0009766,166.3608398,233.3837891,167.3325195,229.4472656,167.3325195z"/>
			<path fill="#FFFFFF" d="M260.0332031,167.3325195c-4.5839844,0-8.9169922-1.1259766-12.8789063-3.3476563
				c-4.1064453-2.3027344-7.3740234-5.6269531-9.7128906-9.8818359c-2.2451172-4.0810547-3.3847656-8.6865234-3.3847656-13.6845703
				c0-3.8144531,0.6601563-7.4824219,1.9638672-10.9033203c1.2998047-3.4150391,3.1503906-6.4892578,5.5-9.1357422
				c2.4335938-2.7402344,5.3134766-4.9150391,8.5585938-6.4648438c3.3896484-1.6201172,7.0419922-2.4414063,10.8525391-2.4414063
				c3.7851563,0,7.4453125,0.8007813,10.8779297,2.3798828c3.6884766,1.6972656,6.7041016,4.1347656,8.9677734,7.2460938
				c1.5527344,2.1308594,2.7138672,4.4189453,3.4433594,6.7900391c0.5791016,1.890625,1.0097656,3.9902344,1.3193359,6.4277344
				l1.1982422,9.4501953l1.6865234,1.3066406l-3.9912109,7.4501953c-1.7392578,3.2480469-3.9013672,6.0097656-6.4257813,8.2080078
				c-2.5742188,2.2412109-5.46875,3.9326172-8.6054688,5.0263672
				C266.4072266,166.8032227,263.2558594,167.3325195,260.0332031,167.3325195z"/>
			<path fill="#FFFFFF" d="M269.0957031,166.277832v-22.1484375h5.5859375v-8.1894531l-5.5859375-1.6806641v-16.0634766
				l21.0175781-6.7226563h13.4746094v0.0771484c3.4013672,0.3476563,6.5341797,1.8574219,8.9462891,4.3378906
				c2.7353516,2.8154297,4.1787109,6.4335938,4.1787109,10.4677734c0,3.7832031-1.2109375,7.2480469-3.5009766,10.0205078
				c-2.4736328,2.9912109-5.8574219,4.7578125-9.6240234,5.0527344v2.7001953h6.484375v22.1484375H269.0957031z"/>
			<path fill="#FFFFFF" d="M322.3769531,167.3325195c-4.9931641,0-10.3623047-1.2207031-16.4121094-3.7333984l-6.1660156-2.5595703
				v-24.4599609c-0.4765625-1.8203125-0.625-3.4941406-0.625-4.8720703c0-5.8378906,2.3466797-10.9707031,6.7880859-14.8427734
				c4.1015625-3.5771484,9.3623047-5.3916016,15.6337891-5.3916016c2.7080078,0,5.3125,0.2978516,7.7421875,0.8857422
				c2.0488281,0.4970703,4.2939453,1.1982422,6.6787109,2.0839844l6.2275391,2.3144531l0.8310547,19.6953125
				c1.8193359,3.0078125,2.7392578,6.3095703,2.7392578,9.8251953c0,4.0488281-1.1728516,7.8144531-3.4853516,11.1943359
				c-2.1513672,3.1425781-5.078125,5.6240234-8.7011719,7.3769531
				C330.2216797,166.4975586,326.4365234,167.3325195,322.3769531,167.3325195z"/>
		</g>
	</g>
	<g>
		<g>
			<path fill="none" stroke="#FFFFFF" d="M54.0029297,197.4008789l-3.5849609-5.6972656H28.690918l14.1254883-12.078125
				l-2.5810547-4.1005859h7.3769531l7.75-6.6269531v-14.4667969l-6.8681641,1.0449219l-1.7314453-6.2822266l-9.2426758,0.8691406
				l5.9213867-12.9160156l-1.0107422-3.6669922l2.8222656-0.2851563l5.4033203-11.7871094l4.7060547,0.2939453v-9.5117188
				l-17.4228516-9.2509766l14.0654297-9.2783203c12.6347656-8.3349609,26.9707031-12.5605469,42.6083984-12.5605469
				c7.3466797,0,13.9931641,1.0732422,19.8769531,3.2011719v-8.1064453l16.9921875,13.8886719
				c8.4238281,6.5488281,12.875,15.4736328,12.875,25.8212891c0,7.5400391-2.2128906,14.125-6.4238281,19.4580078
				c5.0449219,4.1035156,10.8007813,11.7021484,10.8007813,25.0097656c0,10.5703125-3.9580078,19.8505859-11.4472656,26.8369141
				c-7.2666016,6.7646484-17.5302734,10.1914063-30.5136719,10.1914063H54.0029297z M94.6083984,166.0092773l1.7617188-0.0605469
				c8.0585938-0.6064453,9.7451172-3.2607422,10.0625-7.0605469l-0.6552734-0.9228516
				c-1.0820313-1.5224609-2.2783203-2.4794922-3.765625-3.0126953c-1.0097656-0.3613281-3.1855469-0.9130859-7.4033203-1.1455078
				V166.0092773z M94.6083984,121.8579102c3.9960938-0.5683594,6.0654297-1.5605469,7.0664063-2.2402344
				c0.3720703-0.2519531,0.8603516-0.5839844,1.2753906-1.2587891l-0.7646484-0.4365234l-1.3115234-1.9755859
				c-1.5683594-2.3613281-3.3408203-3.3251953-6.265625-3.3798828V121.8579102z"/>
		</g>
		<g>
			<path fill="#FFFFFF" d="M54.0029297,197.4008789l-3.5849609-5.6972656H28.690918l14.1254883-12.078125l-2.5810547-4.1005859
				h7.3769531l7.75-6.6269531v-14.4667969l-6.8681641,1.0449219l-1.7314453-6.2822266l-9.2426758,0.8691406l5.9213867-12.9160156
				l-1.0107422-3.6669922l2.8222656-0.2851563l5.4033203-11.7871094l4.7060547,0.2939453v-9.5117188l-17.4228516-9.2509766
				l14.0654297-9.2783203c12.6347656-8.3349609,26.9707031-12.5605469,42.6083984-12.5605469
				c7.3466797,0,13.9931641,1.0732422,19.8769531,3.2011719v-8.1064453l16.9921875,13.8886719
				c8.4238281,6.5488281,12.875,15.4736328,12.875,25.8212891c0,7.5400391-2.2128906,14.125-6.4238281,19.4580078
				c5.0449219,4.1035156,10.8007813,11.7021484,10.8007813,25.0097656c0,10.5703125-3.9580078,19.8505859-11.4472656,26.8369141
				c-7.2666016,6.7646484-17.5302734,10.1914063-30.5136719,10.1914063H54.0029297z M94.6083984,166.0092773l1.7617188-0.0605469
				c8.0585938-0.6064453,9.7451172-3.2607422,10.0625-7.0605469l-0.6552734-0.9228516
				c-1.0820313-1.5224609-2.2783203-2.4794922-3.765625-3.0126953c-1.0097656-0.3613281-3.1855469-0.9130859-7.4033203-1.1455078
				V166.0092773z M94.6083984,121.8579102c3.9960938-0.5683594,6.0654297-1.5605469,7.0664063-2.2402344
				c0.3720703-0.2519531,0.8603516-0.5839844,1.2753906-1.2587891l-0.7646484-0.4365234l-1.3115234-1.9755859
				c-1.5683594-2.3613281-3.3408203-3.3251953-6.265625-3.3798828V121.8579102z"/>
		</g>
	</g>
	<g>
		<g>
			<path fill="none" stroke="#FFFFFF" d="M61.4541016,125.9282227c-9.8291016,0-19.0566406-3.0361328-27.4267578-9.0224609
				l-4.1821289-2.9921875v-2.9648438c-2.527832-1.9716797-4.8769531-4.25-7.043457-6.8339844
				C14.1967773,93.8510742,9.8339844,80.152832,9.8339844,63.3999023c0-15.6035156,4.4794922-28.9814453,13.3134766-39.7597656
				c9.3217773-11.3740234,21.1582031-17.140625,35.1806641-17.140625c6.3925781,0,13.5615234,1.5097656,21.3056641,4.4873047
				c3.3193359,1.2841797,4.7705078,1.3491211,5.0273438,1.3491211c0.5224609,0,0.7236328-0.1098633,0.9160156-0.2421875
				l5.1396484-3.5517578l15.3867188,8.6518555l-0.2783203,0.4799805l5.1787109,3.1508789l-5.6689453,9.7885742
				C100.4980469,38.8676758,96.625,46.4067383,93.7958984,53.065918l-4.0996094,9.6523438l-20.0263672-9.6533203l0.59375-1.3486328
				l-0.1611328-0.0859375l-0.7480469-4.9375c-0.2080078-1.3789063-0.484375-2.6708984-0.8271484-3.8730469L65.96875,40.769043
				c-3.2353516-2.5947266-5.0605469-2.8740234-5.6953125-2.8740234c-7.2167969,0-7.9960938,17.0107422-7.9960938,24.3242188
				c0,9.0927734,1.1601563,16.5947266,3.4482422,22.2958984c1.7138672,4.2695313,3.8007813,6.9257813,6.2041016,7.8955078
				l3.8222656,1.5419922c1.7998047-0.6259766,2.8994141-1.6074219,3.703125-2.5068359
				c2.3916016-2.6787109,3.8769531-6.9990234,4.4150391-12.8427734c0.6728516-7.1259766,5.3525391-10.8935547,10.0859375-11.7900391
				l0.1660156-1.8994141l4.1523438,1.8642578c2.0117188,0.3398438,3.9882813,1.1796875,5.6806641,2.5498047l11.3457031,5.0927734
				l-0.4462891,6.9248047c-0.8925781,13.8251953-5.0429688,24.7451172-12.3378906,32.4570313
				C84.90625,121.8481445,74.4550781,125.9282227,61.4541016,125.9282227z"/>
		</g>
		<g>
			<path fill="#FFFFFF" d="M61.4541016,125.9282227c-9.8291016,0-19.0566406-3.0361328-27.4267578-9.0224609l-4.1821289-2.9921875
				v-2.9648438c-2.527832-1.9716797-4.8769531-4.25-7.043457-6.8339844
				C14.1967773,93.8510742,9.8339844,80.152832,9.8339844,63.3999023c0-15.6035156,4.4794922-28.9814453,13.3134766-39.7597656
				c9.3217773-11.3740234,21.1582031-17.140625,35.1806641-17.140625c6.3925781,0,13.5615234,1.5097656,21.3056641,4.4873047
				c3.3193359,1.2841797,4.7705078,1.3491211,5.0273438,1.3491211c0.5224609,0,0.7236328-0.1098633,0.9160156-0.2421875
				l5.1396484-3.5517578l15.3867188,8.6518555l-0.2783203,0.4799805l5.1787109,3.1508789l-5.6689453,9.7885742
				C100.4980469,38.8676758,96.625,46.4067383,93.7958984,53.065918l-4.0996094,9.6523438l-20.0263672-9.6533203l0.59375-1.3486328
				l-0.1611328-0.0859375l-0.7480469-4.9375c-0.2080078-1.3789063-0.484375-2.6708984-0.8271484-3.8730469L65.96875,40.769043
				c-3.2353516-2.5947266-5.0605469-2.8740234-5.6953125-2.8740234c-7.2167969,0-7.9960938,17.0107422-7.9960938,24.3242188
				c0,9.0927734,1.1601563,16.5947266,3.4482422,22.2958984c1.7138672,4.2695313,3.8007813,6.9257813,6.2041016,7.8955078
				l3.8222656,1.5419922c1.7998047-0.6259766,2.8994141-1.6074219,3.703125-2.5068359
				c2.3916016-2.6787109,3.8769531-6.9990234,4.4150391-12.8427734c0.6728516-7.1259766,5.3525391-10.8935547,10.0859375-11.7900391
				l0.1660156-1.8994141l4.1523438,1.8642578c2.0117188,0.3398438,3.9882813,1.1796875,5.6806641,2.5498047l11.3457031,5.0927734
				l-0.4462891,6.9248047c-0.8925781,13.8251953-5.0429688,24.7451172-12.3378906,32.4570313
				C84.90625,121.8481445,74.4550781,125.9282227,61.4541016,125.9282227z"/>
		</g>
	</g>
</g>
<g id="Layer_1">
	<g>
		<path fill="#6452A2" d="M109.6806641,52.5600586c0,0.1044922,0.1523438,0.4824219,0.4570313,1.1328125
			c0.3046875,0.6513672,0.4570313,1.2636719,0.4570313,1.8359375c0,1.1201172-0.4160156,2.1162109-1.2480469,2.9882813
			c-0.8320313,0.8730469-1.8691406,1.3085938-3.1113281,1.3085938c-1.1953125,0-2.1445313-0.3447266-2.8476563-1.0351563
			c-0.703125-0.6894531-1.0546875-1.4902344-1.0546875-2.4023438c0-1.3535156,0.5917969-2.6816406,1.7753906-3.984375
			c1.1835938-1.3017578,2.8125-2.3632813,4.8867188-3.1835938s4.3652344-1.2304688,6.8730469-1.2304688
			c1.828125,0,3.5332031,0.3515625,5.1152344,1.0546875s2.8417969,1.7714844,3.7792969,3.203125
			c0.9375,1.4326172,1.40625,3.1640625,1.40625,5.1953125v19.84375c0,1.5888672,0.4101563,2.3828125,1.2304688,2.3828125
			c0.4921875,0,1.0898438-0.4296875,1.7929688-1.2890625l1.3007813,1.6796875
			c-1.1484375,1.2763672-2.2089844,2.2402344-3.1816406,2.890625s-2.1269531,0.9765625-3.4628906,0.9765625
			c-1.546875,0-2.7539063-0.3847656-3.6210938-1.1523438s-1.4765625-1.9589844-1.828125-3.5742188
			c-3.234375,3.0996094-6.4335938,4.6484375-9.5976563,4.6484375c-2.25,0-4.0371094-0.6513672-5.3613281-1.953125
			s-1.9863281-2.9550781-1.9863281-4.9609375c0-1.796875,0.4042969-3.3261719,1.2128906-4.5898438
			c0.8085938-1.2626953,1.875-2.3828125,3.1992188-3.359375s3.2753906-2.2128906,5.8535156-3.7109375
			c2.578125-1.4970703,4.6992188-2.7792969,6.3632813-3.8476563v-5.8984375c0-1.7705078-0.3632813-3.1113281-1.0898438-4.0234375
			c-0.7265625-0.9111328-1.8164063-1.3671875-3.2695313-1.3671875c-1.265625,0-2.2558594,0.2539063-2.9707031,0.7617188
			S109.6806641,51.9614258,109.6806641,52.5600586z M111.8955078,82.0131836c-2.1328125,0-3.8378906-0.4814453-5.1152344-1.4453125
			c-1.2773438-0.9628906-1.9160156-2.3564453-1.9160156-4.1796875c0-1.328125,0.3105469-2.5839844,0.9316406-3.7695313
			c0.6210938-1.1845703,1.5527344-2.5058594,2.7949219-3.9648438c-1.8984375,1.2246094-3.3691406,2.4746094-4.4121094,3.75
			c-1.0429688,1.2763672-1.5644531,2.7871094-1.5644531,4.53125c0,1.5888672,0.6269531,2.9101563,1.8808594,3.9648438
			s2.6191406,1.5820313,4.0957031,1.5820313C110.0205078,82.4819336,111.1220703,82.3256836,111.8955078,82.0131836z
			 M108.5908203,57.3647461c-0.84375,0.078125-1.4882813-0.1035156-1.9335938-0.546875
			c-0.4453125-0.4423828-0.6679688-0.9628906-0.6679688-1.5625c0-0.8066406,0.1992188-1.5292969,0.5976563-2.1679688
			c0.3984375-0.6376953,1.0898438-1.5556641,2.0742188-2.7539063c-1.6640625,0.9375-2.9414063,1.875-3.8320313,2.8125
			s-1.3359375,1.9921875-1.3359375,3.1640625c0,0.5214844,0.2402344,1.0097656,0.7207031,1.4648438
			c0.4804688,0.4560547,1.0488281,0.6835938,1.7050781,0.6835938
			C107.0439453,58.4584961,107.9345703,58.0942383,108.5908203,57.3647461z M118.0830078,76.6225586V64.0834961
			c-3,1.875-5.0917969,3.5683594-6.2753906,5.078125c-1.1835938,1.5107422-1.7753906,3.3339844-1.7753906,5.46875
			c0,1.4326172,0.3515625,2.5390625,1.0546875,3.3203125s1.5234375,1.171875,2.4609375,1.171875
			C115.0244141,79.1225586,116.5361328,78.2895508,118.0830078,76.6225586z M119.2431641,58.0678711v15.4296875
			c0,3.046875,0.2929688,5.3193359,0.8789063,6.8164063c0.5859375,1.4980469,1.734375,2.2460938,3.4453125,2.2460938
			c0.7734375,0,1.3945313-0.1035156,1.8632813-0.3125c-1.40625-0.234375-2.4023438-0.859375-2.9882813-1.875
			s-0.8789063-2.6035156-0.8789063-4.765625V57.6772461c0-2.7080078-0.3457031-4.5761719-1.0371094-5.6054688
			c-0.6914063-1.0283203-1.8808594-1.6464844-3.5683594-1.8554688c0.9140625,0.5214844,1.5234375,1.2763672,1.828125,2.265625
			C119.0908203,53.472168,119.2431641,55.3334961,119.2431641,58.0678711z"/>
		<path fill="#6452A2" d="M146.3486328,47.9897461v6.015625c1.8046875-2.265625,3.1875-3.8339844,4.1484375-4.7070313
			c0.9609375-0.8720703,2.1210938-1.3085938,3.4804688-1.3085938c1.171875,0,2.1621094,0.4628906,2.9707031,1.3867188
			c0.8085938,0.9248047,1.2128906,2.0898438,1.2128906,3.4960938c0,1.4589844-0.3632813,2.6757813-1.0898438,3.6523438
			s-1.640625,1.4648438-2.7421875,1.4648438c-0.4921875,0-1.03125-0.1035156-1.6171875-0.3125
			c-0.5859375-0.2080078-1.078125-0.4814453-1.4765625-0.8203125c-0.234375-0.2080078-0.4804688-0.4296875-0.7382813-0.6640625
			s-0.4863281-0.4160156-0.6855469-0.546875c-0.1992188-0.1298828-0.4160156-0.1953125-0.6503906-0.1953125
			c-0.4453125,0-0.8847656,0.1894531-1.3183594,0.5664063c-0.4335938,0.3779297-0.9316406,0.9052734-1.4941406,1.5820313v18.8671875
			c0,1.3544922,0.1699219,2.3183594,0.5097656,2.890625c0.3398438,0.5732422,0.8671875,0.9316406,1.5820313,1.0742188
			c0.7148438,0.1435547,1.9628906,0.2148438,3.7441406,0.2148438v2.1484375h-18.8789063v-2.1484375h0.9492188
			c2.71875,0,4.078125-1.1972656,4.078125-3.59375V59.5131836c0-2.9941406-1.6757813-5.0517578-5.0273438-6.171875v-1.328125
			l11.3203125-4.0234375H146.3486328z M139.4931641,59.5131836v17.7734375c0,0.8857422-0.1289063,1.5429688-0.3867188,1.9726563
			s-0.6328125,0.8925781-1.125,1.3867188c1.3359375-0.1298828,2.296875-0.5273438,2.8828125-1.1914063
			s0.8789063-1.8164063,0.8789063-3.4570313v-16.484375c0-2.2392578-0.3515625-3.8671875-1.0546875-4.8828125
			s-1.8164063-1.5234375-3.3398438-1.5234375c-0.1171875,0-0.375,0.0263672-0.7734375,0.078125
			c-0.3984375,0.0527344-0.6679688,0.078125-0.8085938,0.078125
			C138.2509766,54.4614258,139.4931641,56.5444336,139.4931641,59.5131836z M148.7041016,54.0053711
			c0.6328125,0,1.265625,0.234375,1.8984375,0.703125c1.453125,1.2763672,2.671875,1.9140625,3.65625,1.9140625
			c1.21875,0,2.109375-0.8720703,2.671875-2.6171875c-0.65625,0.3652344-1.1367188,0.546875-1.4414063,0.546875
			c-0.703125,0-1.40625-0.2597656-2.109375-0.78125c-0.890625-0.8066406-1.6289063-1.2109375-2.2148438-1.2109375
			C150.6025391,52.5600586,149.7822266,53.0424805,148.7041016,54.0053711z"/>
		<path fill="#6452A2" d="M159.1455078,30.5678711l11.671875-4.2578125h1.4414063v25.2734375
			c1.9453125-1.171875,3.6738281-2.0634766,5.1855469-2.6757813c1.5117188-0.6113281,3.2167969-0.9179688,5.1152344-0.9179688
			s3.6855469,0.4101563,5.3613281,1.2304688s3.1171875,1.9599609,4.3242188,3.4179688
			c1.2070313,1.4589844,2.1503906,3.2294922,2.8300781,5.3125c0.6796875,2.0839844,1.0195313,4.3623047,1.0195313,6.8359375
			c0,2.5263672-0.3515625,4.9287109-1.0546875,7.2070313c-0.703125,2.2792969-1.7402344,4.3164063-3.1113281,6.1132813
			s-3.0234375,3.203125-4.9570313,4.21875s-4.0253906,1.5234375-6.2753906,1.5234375
			c-3.09375,0-6.5273438-1.2109375-10.3007813-3.6328125l-5.34375,3.4765625h-0.9140625V39.1225586
			c0-3.6972656-1.6640625-6.0410156-4.9921875-7.03125V30.5678711z M167.6533203,72.9506836v-33.984375
			c0-2.578125-0.2929688-4.4658203-0.8789063-5.6640625c-0.5859375-1.1972656-1.875-1.796875-3.8671875-1.796875
			c-0.6796875,0-1.2070313,0.0527344-1.5820313,0.15625c1.3828125,0.6777344,2.3847656,1.5234375,3.0058594,2.5390625
			s0.9316406,2.4355469,0.9316406,4.2578125v42.734375c0.796875-0.8066406,1.3652344-1.5556641,1.7050781-2.2460938
			c0.3398438-0.6894531,0.5390625-1.4453125,0.5976563-2.265625S167.6533203,74.6176758,167.6533203,72.9506836z
			 M172.2587891,54.3178711v15.1953125c0,3.5419922,0.5625,6.3867188,1.6875,8.5351563s2.7890625,3.2226563,4.9921875,3.2226563
			c1.6640625,0,3.140625-0.6308594,4.4296875-1.8945313c1.2890625-1.2626953,2.3027344-3.1054688,3.0410156-5.5273438
			s1.1074219-5.3378906,1.1074219-8.75c0-2.9160156-0.3632813-5.4423828-1.0898438-7.578125
			c-0.7265625-2.1347656-1.7167969-3.7236328-2.9707031-4.765625c-1.2539063-1.0410156-2.6542969-1.5625-4.2011719-1.5625
			c-0.9140625,0-2.1035156,0.3515625-3.5683594,1.0546875S173.0791016,53.6411133,172.2587891,54.3178711z M179.6767578,50.1381836
			c2.9296875,0.3125,5.1621094,1.7255859,6.6972656,4.2382813c1.5351563,2.5136719,2.3027344,6.0615234,2.3027344,10.6445313
			c0,4.0888672-0.46875,7.4482422-1.40625,10.078125c-0.9375,2.6308594-2.390625,4.6621094-4.359375,6.09375
			c2.71875-0.8330078,4.7285156-2.5976563,6.0292969-5.2929688s1.9511719-6.3730469,1.9511719-11.0351563
			c0-4.8691406-0.9550781-8.59375-2.8652344-11.171875s-4.0722656-3.8671875-6.4863281-3.8671875
			C181.4228516,49.8256836,180.8017578,49.9301758,179.6767578,50.1381836z"/>
		<path fill="#6452A2" d="M200.5947266,65.9975586c0-3.3330078,0.7089844-6.3798828,2.1269531-9.140625
			c1.4179688-2.7597656,3.3515625-4.9277344,5.8007813-6.5039063c2.4492188-1.5751953,5.1621094-2.3632813,8.1386719-2.3632813
			c2.90625,0,5.5605469,0.7685547,7.9628906,2.3046875c2.4023438,1.5371094,4.2949219,3.6591797,5.6777344,6.3671875
			c1.3828125,2.7089844,2.0742188,5.7167969,2.0742188,9.0234375c0,2.5263672-0.4160156,4.9160156-1.2480469,7.1679688
			c-0.8320313,2.2529297-1.9804688,4.1933594-3.4453125,5.8203125c-1.4648438,1.6279297-3.1464844,2.8847656-5.0449219,3.7695313
			s-3.9375,1.328125-6.1171875,1.328125c-2.9296875,0-5.6074219-0.7421875-8.0332031-2.2265625
			s-4.3476563-3.5742188-5.765625-6.2695313S200.5947266,69.487793,200.5947266,65.9975586z M213.0751953,82.2475586
			c-3.046875-2.0566406-5.3320313-4.4921875-6.8554688-7.3046875s-2.2851563-5.8984375-2.2851563-9.2578125
			c0-2.5517578,0.3632813-4.7910156,1.0898438-6.71875c0.7265625-1.9267578,1.6816406-3.5869141,2.8652344-4.9804688
			c1.1835938-1.3925781,2.6660156-2.8320313,4.4472656-4.3164063c-2.3671875,0.9375-4.3476563,2.2529297-5.9414063,3.9453125
			c-1.59375,1.6933594-2.765625,3.6269531-3.515625,5.8007813c-0.75,2.1748047-1.125,4.4726563-1.125,6.8945313
			c0,1.7714844,0.2460938,3.515625,0.7382813,5.234375s1.2128906,3.2685547,2.1621094,4.6484375
			c0.9492188,1.3808594,2.1269531,2.5917969,3.5332031,3.6328125
			C209.5947266,80.8676758,211.2236328,81.675293,213.0751953,82.2475586z M209.3134766,63.7709961
			c0,5.546875,0.7265625,9.9023438,2.1796875,13.0664063s3.3398438,4.7460938,5.6601563,4.7460938
			c1.171875,0,2.2617188-0.5400391,3.2695313-1.6210938c1.0078125-1.0800781,1.8105469-2.6816406,2.4082031-4.8046875
			c0.5976563-2.1220703,0.8964844-4.7197266,0.8964844-7.7929688c0-5.4160156-0.6503906-9.6416016-1.9511719-12.6757813
			c-1.3007813-3.0332031-3.0996094-4.5507813-5.3964844-4.5507813c-2.2265625,0-3.9609375,1.1396484-5.203125,3.4179688
			C209.9345703,55.8354492,209.3134766,59.2397461,209.3134766,63.7709961z M221.7236328,80.2163086
			c1.7578125-1.0673828,3.1054688-2.7597656,4.0429688-5.078125c0.9375-2.3173828,1.40625-5.15625,1.40625-8.515625
			c0-8.28125-2.296875-13.6845703-6.890625-16.2109375c1.640625,1.8232422,2.8183594,4.0625,3.5332031,6.71875
			s1.0722656,6.2246094,1.0722656,10.703125c0,2.8388672-0.2636719,5.2148438-0.7910156,7.1289063
			S222.7783203,78.628418,221.7236328,80.2163086z"/>
		<path fill="#6452A2" d="M248.6181641,47.9897461v5.1953125c1.96875-1.6923828,3.7910156-2.9814453,5.4667969-3.8671875
			c1.6757813-0.8847656,3.6738281-1.328125,5.9941406-1.328125c6.6328125,0,9.9492188,3.6591797,9.9492188,10.9765625v17.8125
			c0,1.6933594,0.3632813,2.7607422,1.0898438,3.203125c0.7265625,0.4433594,1.828125,0.6640625,3.3046875,0.6640625v2.1484375
			h-16.9453125v-2.1484375c1.5,0,2.5957031-0.2666016,3.2871094-0.8007813
			c0.6914063-0.5332031,1.0371094-1.6601563,1.0371094-3.3789063V57.5991211c0-1.3798828-0.1933594-2.5449219-0.5800781-3.4960938
			c-0.3867188-0.9501953-0.9550781-1.6728516-1.7050781-2.1679688c-0.75-0.4941406-1.6640625-0.7421875-2.7421875-0.7421875
			c-1.3359375,0-2.6425781,0.3847656-3.9199219,1.1523438c-1.2773438,0.7685547-2.6894531,1.9335938-4.2363281,3.4960938v20.625
			c0,1.171875,0.1757813,2.0703125,0.5273438,2.6953125s0.8261719,1.015625,1.4238281,1.171875
			s1.4589844,0.2607422,2.5839844,0.3125v2.1484375h-16.9804688v-2.1484375c1.4296875,0,2.53125-0.2148438,3.3046875-0.6445313
			s1.1601563-1.4121094,1.1601563-2.9492188V59.7475586c0-1.71875-0.3515625-3.1054688-1.0546875-4.1601563
			s-1.8398438-1.8554688-3.4101563-2.4023438v-1.2890625l11.109375-3.90625H248.6181641z M241.7978516,58.4584961v17.9296875
			c0,1.171875-0.0761719,2.0185547-0.2285156,2.5390625c-0.1523438,0.5214844-0.4863281,1.09375-1.0019531,1.71875
			c2.296875-0.234375,3.4453125-1.6533203,3.4453125-4.2578125V57.7553711c0-1.3017578-0.4160156-2.4150391-1.2480469-3.3398438
			c-0.8320313-0.9238281-1.7988281-1.3867188-2.9003906-1.3867188c-0.1171875,0-0.328125,0.0263672-0.6328125,0.078125
			c-0.3046875,0.0527344-0.5039063,0.078125-0.5976563,0.078125
			C240.7431641,54.253418,241.7978516,56.0112305,241.7978516,58.4584961z M262.9619141,57.2084961v19.2578125
			c0,0.8076172-0.0175781,1.4003906-0.0527344,1.7773438c-0.0351563,0.3779297-0.1289063,0.7421875-0.28125,1.09375
			s-0.4511719,0.7880859-0.8964844,1.3085938h0.6679688c1.21875,0,2.0273438-0.5009766,2.4257813-1.5039063
			c0.3984375-1.0019531,0.5976563-2.5058594,0.5976563-4.5117188v-17.265625c0-2.2392578-0.4453125-3.9453125-1.3359375-5.1171875
			s-2.4609375-1.8095703-4.7109375-1.9140625c1.265625,0.5732422,2.1796875,1.4003906,2.7421875,2.4804688
			C262.6806641,53.8950195,262.9619141,55.3598633,262.9619141,57.2084961z"/>
	</g>
	<g>
		<path fill="#6452A2" d="M164.7207031,124.4418945v-2.3046875h13.984375v26.6015625
			c0,1.0683594,0.1884766,1.8623047,0.5664063,2.3828125c0.3769531,0.5214844,0.9111328,0.859375,1.6015625,1.015625
			c0.6894531,0.15625,1.6210938,0.234375,2.7929688,0.234375h0.3515625v2.2265625l-14.2578125,2.734375v-5.390625
			c-4.296875,3.59375-8.5683594,5.390625-12.8125,5.390625c-3.3339844,0-5.9902344-0.9902344-7.96875-2.96875
			c-1.9794922-1.9785156-2.96875-4.7783203-2.96875-8.3984375v-13.59375c0-2.03125-0.0654297-3.4765625-0.1953125-4.3359375
			c-0.1308594-0.859375-0.5732422-1.6015625-1.328125-2.2265625c-0.7558594-0.625-2.0058594-1.0800781-3.75-1.3671875v-2.3046875
			h14.296875v23.0859375c0,1.9794922,0.1757813,3.5810547,0.5273438,4.8046875
			c0.3515625,1.2246094,0.9375,2.1425781,1.7578125,2.7539063c0.8203125,0.6123047,1.8945313,0.9179688,3.2226563,0.9179688
			c2.890625,0,5.9628906-1.4316406,9.21875-4.296875v-18.7109375
			C169.7597656,126.7338867,168.0800781,124.6508789,164.7207031,124.4418945z M149.9160156,146.746582v-17.578125
			c0-3.2548828-1.2763672-4.8828125-3.828125-4.8828125c-0.0527344,0-0.2734375,0.0263672-0.6640625,0.078125
			c-0.390625,0.0527344-0.625,0.078125-0.703125,0.078125c1.09375,0.8339844,1.796875,1.7324219,2.109375,2.6953125
			c0.3125,0.9638672,0.46875,2.1748047,0.46875,3.6328125v14.453125c0,3.4375,0.8261719,6.1269531,2.4804688,8.0664063
			c1.6533203,1.9404297,3.9121094,2.9101563,6.7773438,2.9101563c0.8330078,0,1.640625-0.0517578,2.421875-0.15625
			c-2.9433594-0.234375-5.1894531-1.1455078-6.7382813-2.734375
			C150.6904297,151.7211914,149.9160156,149.5336914,149.9160156,146.746582z M173.5878906,151.2387695V130.262207
			c0-1.8222656-0.2480469-3.2744141-0.7421875-4.3554688c-0.4951172-1.0800781-1.5761719-1.6210938-3.2421875-1.6210938
			c-0.0527344,0-0.2480469,0.0263672-0.5859375,0.078125c-0.3388672,0.0527344-0.546875,0.078125-0.625,0.078125
			c1.0410156,0.6513672,1.7441406,1.4648438,2.109375,2.4414063c0.3642578,0.9765625,0.546875,2.2207031,0.546875,3.7304688
			v24.765625c0.9111328-0.3125,1.5625-0.7744141,1.953125-1.3867188
			C173.3925781,153.3813477,173.5878906,152.4633789,173.5878906,151.2387695z"/>
		<path fill="#6452A2" d="M188.0800781,154.3637695v-10.234375h2.109375
			c1.9785156,3.515625,4.0488281,6.1660156,6.2109375,7.9492188c2.1611328,1.7841797,4.2705078,2.6757813,6.328125,2.6757813
			c1.328125,0,2.5126953-0.4296875,3.5546875-1.2890625c1.0410156-0.859375,1.5625-1.8359375,1.5625-2.9296875
			c0-1.4316406-0.390625-2.421875-1.171875-2.96875c-2.9433594-1.953125-5.7685547-3.4501953-8.4765625-4.4921875
			c-7.1621094-2.65625-10.7421875-6.4453125-10.7421875-11.3671875c0-2.9160156,1.1191406-5.3515625,3.359375-7.3046875
			c2.2392578-1.953125,5.2597656-2.9296875,9.0625-2.9296875c1.9267578,0,3.7236328,0.2021484,5.390625,0.6054688
			c1.6660156,0.4042969,3.515625,0.9833984,5.546875,1.7382813l0.390625,9.2578125h-1.9140625
			c-2.109375-3.125-4.1992188-5.4814453-6.2695313-7.0703125c-2.0703125-1.5878906-4.1083984-2.3828125-6.1132813-2.3828125
			c-1.25,0-2.2851563,0.4101563-3.1054688,1.2304688s-1.2304688,1.7255859-1.2304688,2.7148438
			c0,1.2763672,0.5078125,2.2851563,1.5234375,3.0273438s3.1503906,1.8427734,6.40625,3.3007813
			c3.2548828,1.4589844,6.1064453,2.8652344,8.5546875,4.21875c1.5361328,0.8076172,2.7597656,1.9404297,3.671875,3.3984375
			c0.9111328,1.4589844,1.3671875,3.046875,1.3671875,4.765625c0,2.0058594-0.5800781,3.8544922-1.7382813,5.546875
			c-1.1591797,1.6933594-2.7607422,3.0341797-4.8046875,4.0234375c-2.0449219,0.9892578-4.3427734,1.484375-6.8945313,1.484375
			C197.0380859,157.3325195,192.8457031,156.3422852,188.0800781,154.3637695z M208.6660156,152.527832
			c0.703125-0.6503906,1.2236328-1.2431641,1.5625-1.7773438c0.3378906-0.5332031,0.5078125-1.2558594,0.5078125-2.1679688
			c0-2.7861328-2.03125-5-6.09375-6.640625c-3.6464844-1.5097656-6.5234375-2.8447266-8.6328125-4.0039063
			c-2.109375-1.1582031-3.6328125-2.3564453-4.5703125-3.59375c-0.9375-1.2363281-1.40625-2.7792969-1.40625-4.6289063
			c0-1.1191406,0.3125-2.3691406,0.9375-3.75c-0.6777344,0.8339844-1.2177734,1.6601563-1.6210938,2.4804688
			c-0.4042969,0.8203125-0.6054688,1.8300781-0.6054688,3.0273438c0,2.4746094,0.8847656,4.4794922,2.65625,6.015625
			c1.7705078,1.5371094,4.4003906,3.0927734,7.890625,4.6679688c3.4892578,1.5761719,6.0019531,2.8652344,7.5390625,3.8671875
			c1.5361328,1.0029297,2.3046875,2.3896484,2.3046875,4.1601563
			C209.1347656,150.8354492,208.9785156,151.6166992,208.6660156,152.527832z M189.5253906,147.5668945v4.8828125
			c1.3017578,0.5732422,3.4628906,1.2636719,6.484375,2.0703125c-1.6152344-1.1191406-2.8125-2.1220703-3.59375-3.0078125
			C191.6347656,150.6274414,190.6708984,149.3120117,189.5253906,147.5668945z M208.3535156,129.637207l-0.3515625-4.4921875
			c-1.71875-0.703125-3.0605469-1.1845703-4.0234375-1.4453125c-0.9638672-0.2597656-2.3701172-0.390625-4.21875-0.390625
			c1.953125,0.6777344,3.5087891,1.4648438,4.6679688,2.3632813
			C205.5859375,126.5708008,206.8945313,127.8930664,208.3535156,129.637207z"/>
		<path fill="#6452A2" d="M221.7910156,146.824707v-22.2265625h-4.1796875v-1.9921875
			c2.2910156-1.71875,4.0097656-3.0400391,5.15625-3.9648438c1.1455078-0.9238281,2.2324219-1.9589844,3.2617188-3.1054688
			c1.0283203-1.1455078,1.9072266-2.34375,2.6367188-3.59375h2.0703125v10.1953125h9.6875v2.4609375h-9.6875v23.359375
			c0,1.71875,0.2080078,3.0019531,0.625,3.8476563c0.4160156,0.8466797,1.1191406,1.2695313,2.109375,1.2695313
			c0.9375,0,1.8027344-0.2597656,2.5976563-0.78125c0.7939453-0.5205078,1.7636719-1.328125,2.9101563-2.421875l1.4453125,1.5234375
			c-1.953125,2.0058594-3.7441406,3.4960938-5.3710938,4.4726563c-1.6279297,0.9765625-3.4960938,1.4648438-5.6054688,1.4648438
			c-2.0058594,0-3.5683594-0.4433594-4.6875-1.328125c-1.1201172-0.8847656-1.8945313-2.0898438-2.3242188-3.6132813
			S221.7910156,149.012207,221.7910156,146.824707z M225.6191406,117.9575195l-2.578125,2.1484375v25.9375
			c0,3.4638672,0.4492188,5.9833984,1.3476563,7.5585938c0.8984375,1.5761719,2.5058594,2.3632813,4.8242188,2.3632813
			c1.2236328,0,2.4472656-0.1953125,3.671875-0.5859375c-2.3701172,0.078125-4.1738281-0.4746094-5.4101563-1.6601563
			c-1.2373047-1.1845703-1.8554688-3.1572266-1.8554688-5.9179688V117.9575195z"/>
		<path fill="#6452A2" d="M274.0566406,146.590332l1.5625,1.2109375c-1.171875,2.1875-2.5654297,3.984375-4.1796875,5.390625
			c-1.6152344,1.40625-3.3925781,2.4482422-5.3320313,3.125c-1.9404297,0.6767578-3.9648438,1.015625-6.0742188,1.015625
			c-2.8652344,0-5.5273438-0.6904297-7.9882813-2.0703125s-4.4082031-3.3720703-5.8398438-5.9765625
			c-1.4326172-2.6035156-2.1484375-5.5595703-2.1484375-8.8671875c0-2.6035156,0.4355469-5.0517578,1.3085938-7.34375
			c0.8720703-2.2910156,2.0830078-4.3095703,3.6328125-6.0546875c1.5488281-1.7441406,3.3457031-3.1054688,5.390625-4.0820313
			c2.0439453-0.9765625,4.2246094-1.4648438,6.5429688-1.4648438c2.34375,0,4.5761719,0.4882813,6.6992188,1.4648438
			c2.1220703,0.9765625,3.8085938,2.3242188,5.0585938,4.0429688c0.9111328,1.25,1.5683594,2.5332031,1.9726563,3.8476563
			c0.4033203,1.3154297,0.7226563,2.8974609,0.9570313,4.7460938h-23.59375c0.1035156,2.7089844,0.5664063,5,1.3867188,6.875
			s1.8876953,3.3857422,3.203125,4.53125c1.3144531,1.1464844,2.7148438,1.9667969,4.1992188,2.4609375
			c1.484375,0.4951172,2.9033203,0.7421875,4.2578125,0.7421875
			C268.3535156,150.184082,271.3476563,148.9868164,274.0566406,146.590332z M252.6113281,125.3793945
			c-4.8701172,3.8544922-7.3046875,8.90625-7.3046875,15.15625c0,4.53125,1.4511719,8.2363281,4.3554688,11.1132813
			c2.9033203,2.8779297,6.2558594,4.3164063,10.0585938,4.3164063c2.2128906,0,4.4335938-0.4492188,6.6601563-1.3476563
			s4.1074219-2.2324219,5.6445313-4.0039063c-1.5888672,1.015625-3.2099609,1.8427734-4.8632813,2.4804688
			c-1.6542969,0.6386719-3.6269531,0.9570313-5.9179688,0.9570313c-3.8808594,0-7.1162109-1.3535156-9.7070313-4.0625
			c-2.5917969-2.7080078-3.8867188-6.2363281-3.8867188-10.5859375c0-2.7597656,0.4296875-5.234375,1.2890625-7.421875
			S251.0224609,127.5932617,252.6113281,125.3793945z M252.2597656,133.074707h13.6328125v-1.2890625
			c0-1.5097656-0.2734375-2.8574219-0.8203125-4.0429688c-0.546875-1.1845703-1.2958984-2.0957031-2.2460938-2.734375
			c-0.9511719-0.6376953-2.0380859-0.9570313-3.2617188-0.9570313c-1.9794922,0-3.6591797,0.8789063-5.0390625,2.6367188
			C253.1445313,128.4458008,252.3896484,130.574707,252.2597656,133.074707z M267.1425781,133.074707h2.734375
			c-0.078125-2.9160156-0.6777344-5.0712891-1.796875-6.4648438c-1.1201172-1.3925781-2.9951172-2.3242188-5.625-2.7929688
			c1.6660156,0.7558594,2.8642578,1.7382813,3.59375,2.9492188c0.7285156,1.2109375,1.09375,3.0537109,1.09375,5.5273438V133.074707
			z"/>
		<path fill="#6452A2" d="M293.5878906,121.4731445v6.015625c2.0048828-2.265625,3.5410156-3.8339844,4.609375-4.7070313
			c1.0673828-0.8720703,2.3564453-1.3085938,3.8671875-1.3085938c1.3017578,0,2.4023438,0.4628906,3.3007813,1.3867188
			c0.8984375,0.9248047,1.3476563,2.0898438,1.3476563,3.4960938c0,1.4589844-0.4042969,2.6757813-1.2109375,3.6523438
			c-0.8076172,0.9765625-1.8232422,1.4648438-3.046875,1.4648438c-0.546875,0-1.1464844-0.1035156-1.796875-0.3125
			c-0.6513672-0.2080078-1.1982422-0.4814453-1.640625-0.8203125c-0.2607422-0.2080078-0.5341797-0.4296875-0.8203125-0.6640625
			c-0.2871094-0.234375-0.5410156-0.4160156-0.7617188-0.546875c-0.2216797-0.1298828-0.4628906-0.1953125-0.7226563-0.1953125
			c-0.4951172,0-0.9833984,0.1894531-1.4648438,0.5664063c-0.4824219,0.3779297-1.0351563,0.9052734-1.6601563,1.5820313v18.8671875
			c0,1.3544922,0.1884766,2.3183594,0.5664063,2.890625c0.3769531,0.5732422,0.9628906,0.9316406,1.7578125,1.0742188
			c0.7939453,0.1435547,2.1806641,0.2148438,4.1601563,0.2148438v2.1484375h-20.9765625v-2.1484375h1.0546875
			c3.0205078,0,4.53125-1.1972656,4.53125-3.59375V132.996582c0-2.9941406-1.8623047-5.0517578-5.5859375-6.171875v-1.328125
			l12.578125-4.0234375H293.5878906z M285.9707031,132.996582v17.7734375c0,0.8857422-0.1435547,1.5429688-0.4296875,1.9726563
			c-0.2871094,0.4296875-0.703125,0.8925781-1.25,1.3867188c1.484375-0.1298828,2.5517578-0.5273438,3.203125-1.1914063
			c0.6503906-0.6640625,0.9765625-1.8164063,0.9765625-3.4570313v-16.484375c0-2.2392578-0.390625-3.8671875-1.171875-4.8828125
			s-2.0185547-1.5234375-3.7109375-1.5234375c-0.1308594,0-0.4169922,0.0263672-0.859375,0.078125
			c-0.4433594,0.0527344-0.7421875,0.078125-0.8984375,0.078125
			C284.5898438,127.9448242,285.9707031,130.027832,285.9707031,132.996582z M296.2050781,127.4887695
			c0.703125,0,1.40625,0.234375,2.109375,0.703125c1.6142578,1.2763672,2.96875,1.9140625,4.0625,1.9140625
			c1.3535156,0,2.34375-0.8720703,2.96875-2.6171875c-0.7294922,0.3652344-1.2636719,0.546875-1.6015625,0.546875
			c-0.78125,0-1.5625-0.2597656-2.34375-0.78125c-0.9902344-0.8066406-1.8105469-1.2109375-2.4609375-1.2109375
			C298.3144531,126.043457,297.4023438,126.5258789,296.2050781,127.4887695z"/>
		<path fill="#6452A2" d="M309.7988281,154.3637695v-10.234375h2.109375
			c1.9785156,3.515625,4.0488281,6.1660156,6.2109375,7.9492188c2.1611328,1.7841797,4.2705078,2.6757813,6.328125,2.6757813
			c1.328125,0,2.5126953-0.4296875,3.5546875-1.2890625c1.0410156-0.859375,1.5625-1.8359375,1.5625-2.9296875
			c0-1.4316406-0.390625-2.421875-1.171875-2.96875c-2.9433594-1.953125-5.7685547-3.4501953-8.4765625-4.4921875
			c-7.1621094-2.65625-10.7421875-6.4453125-10.7421875-11.3671875c0-2.9160156,1.1191406-5.3515625,3.359375-7.3046875
			c2.2392578-1.953125,5.2597656-2.9296875,9.0625-2.9296875c1.9267578,0,3.7236328,0.2021484,5.390625,0.6054688
			c1.6660156,0.4042969,3.515625,0.9833984,5.546875,1.7382813l0.390625,9.2578125h-1.9140625
			c-2.109375-3.125-4.1992188-5.4814453-6.2695313-7.0703125c-2.0703125-1.5878906-4.1083984-2.3828125-6.1132813-2.3828125
			c-1.25,0-2.2851563,0.4101563-3.1054688,1.2304688s-1.2304688,1.7255859-1.2304688,2.7148438
			c0,1.2763672,0.5078125,2.2851563,1.5234375,3.0273438s3.1503906,1.8427734,6.40625,3.3007813
			c3.2548828,1.4589844,6.1064453,2.8652344,8.5546875,4.21875c1.5361328,0.8076172,2.7597656,1.9404297,3.671875,3.3984375
			c0.9111328,1.4589844,1.3671875,3.046875,1.3671875,4.765625c0,2.0058594-0.5800781,3.8544922-1.7382813,5.546875
			c-1.1591797,1.6933594-2.7607422,3.0341797-4.8046875,4.0234375c-2.0449219,0.9892578-4.3427734,1.484375-6.8945313,1.484375
			C318.7568359,157.3325195,314.5644531,156.3422852,309.7988281,154.3637695z M330.3847656,152.527832
			c0.703125-0.6503906,1.2236328-1.2431641,1.5625-1.7773438c0.3378906-0.5332031,0.5078125-1.2558594,0.5078125-2.1679688
			c0-2.7861328-2.03125-5-6.09375-6.640625c-3.6464844-1.5097656-6.5234375-2.8447266-8.6328125-4.0039063
			c-2.109375-1.1582031-3.6328125-2.3564453-4.5703125-3.59375c-0.9375-1.2363281-1.40625-2.7792969-1.40625-4.6289063
			c0-1.1191406,0.3125-2.3691406,0.9375-3.75c-0.6777344,0.8339844-1.2177734,1.6601563-1.6210938,2.4804688
			c-0.4042969,0.8203125-0.6054688,1.8300781-0.6054688,3.0273438c0,2.4746094,0.8847656,4.4794922,2.65625,6.015625
			c1.7705078,1.5371094,4.4003906,3.0927734,7.890625,4.6679688c3.4892578,1.5761719,6.0019531,2.8652344,7.5390625,3.8671875
			c1.5361328,1.0029297,2.3046875,2.3896484,2.3046875,4.1601563
			C330.8535156,150.8354492,330.6972656,151.6166992,330.3847656,152.527832z M311.2441406,147.5668945v4.8828125
			c1.3017578,0.5732422,3.4628906,1.2636719,6.484375,2.0703125c-1.6152344-1.1191406-2.8125-2.1220703-3.59375-3.0078125
			C313.3535156,150.6274414,312.3896484,149.3120117,311.2441406,147.5668945z M330.0722656,129.637207l-0.3515625-4.4921875
			c-1.71875-0.703125-3.0605469-1.1845703-4.0234375-1.4453125c-0.9638672-0.2597656-2.3701172-0.390625-4.21875-0.390625
			c1.953125,0.6777344,3.5087891,1.4648438,4.6679688,2.3632813
			C327.3046875,126.5708008,328.6132813,127.8930664,330.0722656,129.637207z"/>
	</g>
</g>
<g id="Layer_2">
	<g>
		<path fill="#F47421" d="M57.5107422,102.0083008c11.0234375-7.2714844,23.3916016-10.9082031,37.1025391-10.9082031
			c9.9589844,0,18.0888672,2.2353516,24.3886719,6.7050781c6.2988281,4.4707031,9.4492188,10.2480469,9.4492188,17.3349609
			c0,9.4492188-5.4658203,15.7724609-16.3974609,18.96875v0.7636719c1.1113281,0.2783203,2.4541016,0.6494141,4.0292969,1.1123047
			c5.1416016-1.2041016,9.1826172-3.6591797,12.125-7.3652344c2.9414063-3.7050781,4.4121094-8.1748047,4.4121094-13.4101563
			c0-6.5761719-2.7099609-12.4130859-8.1298828-17.5087891v-0.4169922l0.7646484,0.625
			c6.0673828,4.6796875,9.1025391,10.6777344,9.1025391,17.9960938c0,10.0986328-5.2353516,17.1386719-15.703125,21.1220703
			c4.5390625,2.0849609,8.0703125,5.0498047,10.5957031,8.8935547c2.5244141,3.8457031,3.7871094,8.1757813,3.7871094,12.9931641
			c0,6.9023438-2.5019531,12.4257813-7.5039063,16.5712891c-5.0029297,4.1464844-11.6728516,6.21875-20.0107422,6.21875H55.7734375
			l9.5888672-8.1992188v-30.0849609c-2.7333984,0-5.9296875,0.2773438-9.5888672,0.8339844l-0.5556641-2.015625
			c4.1220703-0.4169922,7.5039063-0.625,10.1445313-0.625v-3.6826172H63.625c-2.5947266,0-5.8603516,0.1855469-9.796875,0.5556641
			l3.0576172-6.6699219l1.1113281,0.0693359c1.8066406,0.1386719,3.171875,0.2089844,4.0996094,0.2089844
			c1.3896484,0,2.4775391,0.0693359,3.265625,0.2080078v-26.125L57.5107422,102.0083008z M131.2998047,142.8637695
			c4.9560547,3.8447266,7.4345703,9.6816406,7.4345703,17.5087891c0,7.875-2.7568359,14.3828125-8.2685547,19.5244141
			c-5.3740234,5.0029297-13.2705078,7.5039063-23.6923828,7.5039063H59.5253906l-1.1806641-1.8759766H102.1875
			c9.5410156,0,16.4199219-0.9726563,20.6357422-2.9179688c9.3564453-4.3535156,14.0351563-11.9267578,14.0351563-22.7207031
			c0-6.0205078-2.1308594-11.4873047-6.3925781-16.3974609L131.2998047,142.8637695z M79.2587891,100.9663086v31.3359375
			c0.5087891-0.0458984,0.8564453-0.0693359,1.0419922-0.0693359l1.25,0.0693359c0.1845703,0,0.5791016,0,1.1816406,0v-28.4179688
			c3.9833984-1.8515625,7.8740234-2.7792969,11.6728516-2.7792969c4.3535156,0,7.7929688,0.7880859,10.3183594,2.3623047
			c2.5234375,1.5751953,4.6660156,4.2626953,6.4267578,8.0595703l-1.9453125-1.1113281
			c-3.4746094-5.2333984-8.4316406-7.8515625-14.8691406-7.8515625c-3.6132813,0-6.8564453,1.0195313-9.7275391,3.0576172
			v26.6806641h2.9179688c8.8476563,0,15.4355469-1.4697266,19.7675781-4.4121094
			c4.3310547-2.9414063,6.4970703-7.4453125,6.4970703-13.5136719c0-5.3261719-1.7958984-9.6240234-5.3847656-12.8896484
			c-3.5908203-3.265625-8.3037109-4.8984375-14.1396484-4.8984375C89.125,96.5883789,84.1220703,98.0483398,79.2587891,100.9663086z
			 M79.2587891,137.9995117v38.2841797h3.4736328V142.168457c3.2880859-0.2314453,5.6503906-0.3476563,7.0869141-0.3476563
			c7.6884766,0,13.2587891,0.71875,16.7099609,2.1542969c3.4501953,1.4365234,6.1953125,4.1689453,8.234375,8.1992188h-0.8339844
			c-2.2705078-3.1962891-5.1191406-5.4082031-8.5458984-6.6357422c-3.4287109-1.2265625-8.4541016-1.8417969-15.078125-1.8417969
			l-5.6972656,0.1396484v32.4472656h2.2236328l10.0742188-0.3476563c13.0625-0.9257813,19.59375-7.2714844,19.59375-19.0371094
			c0-7.3652344-2.1533203-12.4023438-6.4609375-15.1123047c-4.3085938-2.7099609-12.3681641-4.0644531-24.1796875-4.0644531
			C84.7011719,137.722168,82.5,137.8149414,79.2587891,137.9995117z"/>
		<path fill="#F47421" d="M92.3740234,20.9462891l-0.7646484,1.3203125
			c-4.1689453,7.2724609-7.78125,14.5454102-10.8388672,21.8178711l-0.6259766,1.5976563l-0.9023438-0.4863281
			c-1.0664063-7.0410156-3.5439453-12.6220703-7.4355469-16.7456055c-3.890625-4.1220703-8.5927734-6.1835938-14.1044922-6.1835938
			c-5.8837891,0-10.7939453,2.5708008-14.7304688,7.7124023c-4.9570313,6.3925781-7.4345703,17.2314453-7.4345703,32.5175781
			c0,13.15625,2.28125,23.4628906,6.84375,30.9199219c4.5625,7.4589844,10.8964844,11.1865234,19.0039063,11.1865234
			c6.484375,0,11.6611328-2.1650391,15.5292969-6.4970703c3.8671875-4.3300781,6.171875-10.5253906,6.9140625-18.5859375
			c0.1835938-1.9453125,0.9726563-2.9179688,2.3613281-2.9179688c1.8066406,0,2.7109375,1.5058594,2.7109375,4.515625
			c0,4.4941406-1.0195313,9.1494141-3.0585938,13.9667969c-4.3066406,10.1904297-13.2011719,15.2851563-26.6806641,15.2851563
			c-12.0439453,0-21.6088867-4.2265625-28.6962891-12.6796875c-7.0869141-8.453125-10.6308594-19.8828125-10.6308594-34.2900391
			c0-13.2939453,3.6826172-24.4345703,11.0478516-33.4208984S47.3945313,16.4995117,58.328125,16.4995117
			c5.1865234,0,11.0927734,1.2744141,17.7167969,3.8212891c3.4746094,1.3442383,6.3457031,2.0151367,8.6162109,2.0151367
			c2.4550781,0,4.6552734-0.6708984,6.6005859-2.0151367L92.3740234,20.9462891z M94.875,80.7016602
			c-0.7412109,11.4882813-3.9492188,20.2304688-9.6230469,26.2285156c-5.6748047,6-13.6074219,8.9980469-23.7978516,8.9980469
			c-7.7363281,0-14.9384766-2.3847656-21.6088867-7.15625v-0.5556641c5.9282227,3.890625,13.0854492,5.8369141,21.4702148,5.8369141
			c9.1708984,0,16.6513672-2.9414063,22.4423828-8.8242188c2.8251953-2.8720703,4.9101563-6.0917969,6.2539063-9.6582031
			c1.3427734-3.5664063,2.2460938-8.2910156,2.7089844-14.1748047l0.1396484-1.5986328L94.875,80.7016602z M72.2246094,32.9672852
			c-4.2167969-3.3813477-8.1992188-5.0727539-11.9511719-5.0727539c-11.9980469,0-17.9960938,11.4418945-17.9960938,34.324707
			c0,10.421875,1.3886719,19.0957031,4.1679688,26.0205078c2.7792969,6.9257813,6.6933594,11.4072266,11.7431641,13.4443359
			v0.6953125c-5.4658203-1.1113281-9.8310547-5.3154297-13.0976563-12.6113281
			c-3.265625-7.2949219-4.8984375-16.5244141-4.8984375-27.6884766c0-23.9472656,6.5771484-35.9223633,19.7333984-35.9223633
			c4.4472656,0,8.5458984,1.9697266,12.2988281,5.90625V32.9672852z M97.4462891,24.28125l-0.7646484,1.3203125
			c-5.0488281,8.6157227-9.0791016,16.4672852-12.0898438,23.5551758l-1.8759766-0.9042969l0.7646484-1.7363281
			c2.3154297-4.8642578,4.3535156-8.8945313,6.1142578-12.0898438l5.5585938-9.8671875l0.6943359-1.2504883L97.4462891,24.28125z"/>
	</g>
	<g>
		<path fill="none" stroke="#000000" stroke-width="3" d="M57.5107422,102.0083008
			c11.0234375-7.2714844,23.3916016-10.9082031,37.1025391-10.9082031c9.9589844,0,18.0888672,2.2353516,24.3886719,6.7050781
			c6.2988281,4.4707031,9.4492188,10.2480469,9.4492188,17.3349609c0,9.4492188-5.4658203,15.7724609-16.3974609,18.96875v0.7636719
			c1.1113281,0.2783203,2.4541016,0.6494141,4.0292969,1.1123047c5.1416016-1.2041016,9.1826172-3.6591797,12.125-7.3652344
			c2.9414063-3.7050781,4.4121094-8.1748047,4.4121094-13.4101563c0-6.5761719-2.7099609-12.4130859-8.1298828-17.5087891
			v-0.4169922l0.7646484,0.625c6.0673828,4.6796875,9.1025391,10.6777344,9.1025391,17.9960938
			c0,10.0986328-5.2353516,17.1386719-15.703125,21.1220703c4.5390625,2.0849609,8.0703125,5.0498047,10.5957031,8.8935547
			c2.5244141,3.8457031,3.7871094,8.1757813,3.7871094,12.9931641c0,6.9023438-2.5019531,12.4257813-7.5039063,16.5712891
			c-5.0029297,4.1464844-11.6728516,6.21875-20.0107422,6.21875H55.7734375l9.5888672-8.1992188v-30.0849609
			c-2.7333984,0-5.9296875,0.2773438-9.5888672,0.8339844l-0.5556641-2.015625
			c4.1220703-0.4169922,7.5039063-0.625,10.1445313-0.625v-3.6826172H63.625c-2.5947266,0-5.8603516,0.1855469-9.796875,0.5556641
			l3.0576172-6.6699219l1.1113281,0.0693359c1.8066406,0.1386719,3.171875,0.2089844,4.0996094,0.2089844
			c1.3896484,0,2.4775391,0.0693359,3.265625,0.2080078v-26.125L57.5107422,102.0083008z M131.2998047,142.8637695
			c4.9560547,3.8447266,7.4345703,9.6816406,7.4345703,17.5087891c0,7.875-2.7568359,14.3828125-8.2685547,19.5244141
			c-5.3740234,5.0029297-13.2705078,7.5039063-23.6923828,7.5039063H59.5253906l-1.1806641-1.8759766H102.1875
			c9.5410156,0,16.4199219-0.9726563,20.6357422-2.9179688c9.3564453-4.3535156,14.0351563-11.9267578,14.0351563-22.7207031
			c0-6.0205078-2.1308594-11.4873047-6.3925781-16.3974609L131.2998047,142.8637695z M79.2587891,100.9663086v31.3359375
			c0.5087891-0.0458984,0.8564453-0.0693359,1.0419922-0.0693359l1.25,0.0693359c0.1845703,0,0.5791016,0,1.1816406,0v-28.4179688
			c3.9833984-1.8515625,7.8740234-2.7792969,11.6728516-2.7792969c4.3535156,0,7.7929688,0.7880859,10.3183594,2.3623047
			c2.5234375,1.5751953,4.6660156,4.2626953,6.4267578,8.0595703l-1.9453125-1.1113281
			c-3.4746094-5.2333984-8.4316406-7.8515625-14.8691406-7.8515625c-3.6132813,0-6.8564453,1.0195313-9.7275391,3.0576172
			v26.6806641h2.9179688c8.8476563,0,15.4355469-1.4697266,19.7675781-4.4121094
			c4.3310547-2.9414063,6.4970703-7.4453125,6.4970703-13.5136719c0-5.3261719-1.7958984-9.6240234-5.3847656-12.8896484
			c-3.5908203-3.265625-8.3037109-4.8984375-14.1396484-4.8984375C89.125,96.5883789,84.1220703,98.0483398,79.2587891,100.9663086z
			 M79.2587891,137.9995117v38.2841797h3.4736328V142.168457c3.2880859-0.2314453,5.6503906-0.3476563,7.0869141-0.3476563
			c7.6884766,0,13.2587891,0.71875,16.7099609,2.1542969c3.4501953,1.4365234,6.1953125,4.1689453,8.234375,8.1992188h-0.8339844
			c-2.2705078-3.1962891-5.1191406-5.4082031-8.5458984-6.6357422c-3.4287109-1.2265625-8.4541016-1.8417969-15.078125-1.8417969
			l-5.6972656,0.1396484v32.4472656h2.2236328l10.0742188-0.3476563c13.0625-0.9257813,19.59375-7.2714844,19.59375-19.0371094
			c0-7.3652344-2.1533203-12.4023438-6.4609375-15.1123047c-4.3085938-2.7099609-12.3681641-4.0644531-24.1796875-4.0644531
			C84.7011719,137.722168,82.5,137.8149414,79.2587891,137.9995117z"/>
		<path fill="none" stroke="#000000" stroke-width="3" d="M92.3740234,20.9462891l-0.7646484,1.3203125
			c-4.1689453,7.2724609-7.78125,14.5454102-10.8388672,21.8178711l-0.6259766,1.5976563l-0.9023438-0.4863281
			c-1.0664063-7.0410156-3.5439453-12.6220703-7.4355469-16.7456055c-3.890625-4.1220703-8.5927734-6.1835938-14.1044922-6.1835938
			c-5.8837891,0-10.7939453,2.5708008-14.7304688,7.7124023c-4.9570313,6.3925781-7.4345703,17.2314453-7.4345703,32.5175781
			c0,13.15625,2.28125,23.4628906,6.84375,30.9199219c4.5625,7.4589844,10.8964844,11.1865234,19.0039063,11.1865234
			c6.484375,0,11.6611328-2.1650391,15.5292969-6.4970703c3.8671875-4.3300781,6.171875-10.5253906,6.9140625-18.5859375
			c0.1835938-1.9453125,0.9726563-2.9179688,2.3613281-2.9179688c1.8066406,0,2.7109375,1.5058594,2.7109375,4.515625
			c0,4.4941406-1.0195313,9.1494141-3.0585938,13.9667969c-4.3066406,10.1904297-13.2011719,15.2851563-26.6806641,15.2851563
			c-12.0439453,0-21.6088867-4.2265625-28.6962891-12.6796875c-7.0869141-8.453125-10.6308594-19.8828125-10.6308594-34.2900391
			c0-13.2939453,3.6826172-24.4345703,11.0478516-33.4208984S47.3945313,16.4995117,58.328125,16.4995117
			c5.1865234,0,11.0927734,1.2744141,17.7167969,3.8212891c3.4746094,1.3442383,6.3457031,2.0151367,8.6162109,2.0151367
			c2.4550781,0,4.6552734-0.6708984,6.6005859-2.0151367L92.3740234,20.9462891z M94.875,80.7016602
			c-0.7412109,11.4882813-3.9492188,20.2304688-9.6230469,26.2285156c-5.6748047,6-13.6074219,8.9980469-23.7978516,8.9980469
			c-7.7363281,0-14.9384766-2.3847656-21.6088867-7.15625v-0.5556641c5.9282227,3.890625,13.0854492,5.8369141,21.4702148,5.8369141
			c9.1708984,0,16.6513672-2.9414063,22.4423828-8.8242188c2.8251953-2.8720703,4.9101563-6.0917969,6.2539063-9.6582031
			c1.3427734-3.5664063,2.2460938-8.2910156,2.7089844-14.1748047l0.1396484-1.5986328L94.875,80.7016602z M72.2246094,32.9672852
			c-4.2167969-3.3813477-8.1992188-5.0727539-11.9511719-5.0727539c-11.9980469,0-17.9960938,11.4418945-17.9960938,34.324707
			c0,10.421875,1.3886719,19.0957031,4.1679688,26.0205078c2.7792969,6.9257813,6.6933594,11.4072266,11.7431641,13.4443359
			v0.6953125c-5.4658203-1.1113281-9.8310547-5.3154297-13.0976563-12.6113281
			c-3.265625-7.2949219-4.8984375-16.5244141-4.8984375-27.6884766c0-23.9472656,6.5771484-35.9223633,19.7333984-35.9223633
			c4.4472656,0,8.5458984,1.9697266,12.2988281,5.90625V32.9672852z M97.4462891,24.28125l-0.7646484,1.3203125
			c-5.0488281,8.6157227-9.0791016,16.4672852-12.0898438,23.5551758l-1.8759766-0.9042969l0.7646484-1.7363281
			c2.3154297-4.8642578,4.3535156-8.8945313,6.1142578-12.0898438l5.5585938-9.8671875l0.6943359-1.2504883L97.4462891,24.28125z"/>
	</g>
	<g>
		<path fill="#F37521" d="M57.5107422,102.0083008c11.0234375-7.2714844,23.3916016-10.9082031,37.1025391-10.9082031
			c9.9589844,0,18.0888672,2.2353516,24.3886719,6.7050781c6.2988281,4.4707031,9.4492188,10.2480469,9.4492188,17.3349609
			c0,9.4492188-5.4658203,15.7724609-16.3974609,18.96875v0.7636719c1.1113281,0.2783203,2.4541016,0.6494141,4.0292969,1.1123047
			c5.1416016-1.2041016,9.1826172-3.6591797,12.125-7.3652344c2.9414063-3.7050781,4.4121094-8.1748047,4.4121094-13.4101563
			c0-6.5761719-2.7099609-12.4130859-8.1298828-17.5087891v-0.4169922l0.7646484,0.625
			c6.0673828,4.6796875,9.1025391,10.6777344,9.1025391,17.9960938c0,10.0986328-5.2353516,17.1386719-15.703125,21.1220703
			c4.5390625,2.0849609,8.0703125,5.0498047,10.5957031,8.8935547c2.5244141,3.8457031,3.7871094,8.1757813,3.7871094,12.9931641
			c0,6.9023438-2.5019531,12.4257813-7.5039063,16.5712891c-5.0029297,4.1464844-11.6728516,6.21875-20.0107422,6.21875H55.7734375
			l9.5888672-8.1992188v-30.0849609c-2.7333984,0-5.9296875,0.2773438-9.5888672,0.8339844l-0.5556641-2.015625
			c4.1220703-0.4169922,7.5039063-0.625,10.1445313-0.625v-3.6826172H63.625c-2.5947266,0-5.8603516,0.1855469-9.796875,0.5556641
			l3.0576172-6.6699219l1.1113281,0.0693359c1.8066406,0.1386719,3.171875,0.2089844,4.0996094,0.2089844
			c1.3896484,0,2.4775391,0.0693359,3.265625,0.2080078v-26.125L57.5107422,102.0083008z M131.2998047,142.8637695
			c4.9560547,3.8447266,7.4345703,9.6816406,7.4345703,17.5087891c0,7.875-2.7568359,14.3828125-8.2685547,19.5244141
			c-5.3740234,5.0029297-13.2705078,7.5039063-23.6923828,7.5039063H59.5253906l-1.1806641-1.8759766H102.1875
			c9.5410156,0,16.4199219-0.9726563,20.6357422-2.9179688c9.3564453-4.3535156,14.0351563-11.9267578,14.0351563-22.7207031
			c0-6.0205078-2.1308594-11.4873047-6.3925781-16.3974609L131.2998047,142.8637695z M79.2587891,100.9663086v31.3359375
			c0.5087891-0.0458984,0.8564453-0.0693359,1.0419922-0.0693359l1.25,0.0693359c0.1845703,0,0.5791016,0,1.1816406,0v-28.4179688
			c3.9833984-1.8515625,7.8740234-2.7792969,11.6728516-2.7792969c4.3535156,0,7.7929688,0.7880859,10.3183594,2.3623047
			c2.5234375,1.5751953,4.6660156,4.2626953,6.4267578,8.0595703l-1.9453125-1.1113281
			c-3.4746094-5.2333984-8.4316406-7.8515625-14.8691406-7.8515625c-3.6132813,0-6.8564453,1.0195313-9.7275391,3.0576172
			v26.6806641h2.9179688c8.8476563,0,15.4355469-1.4697266,19.7675781-4.4121094
			c4.3310547-2.9414063,6.4970703-7.4453125,6.4970703-13.5136719c0-5.3261719-1.7958984-9.6240234-5.3847656-12.8896484
			c-3.5908203-3.265625-8.3037109-4.8984375-14.1396484-4.8984375C89.125,96.5883789,84.1220703,98.0483398,79.2587891,100.9663086z
			 M79.2587891,137.9995117v38.2841797h3.4736328V142.168457c3.2880859-0.2314453,5.6503906-0.3476563,7.0869141-0.3476563
			c7.6884766,0,13.2587891,0.71875,16.7099609,2.1542969c3.4501953,1.4365234,6.1953125,4.1689453,8.234375,8.1992188h-0.8339844
			c-2.2705078-3.1962891-5.1191406-5.4082031-8.5458984-6.6357422c-3.4287109-1.2265625-8.4541016-1.8417969-15.078125-1.8417969
			l-5.6972656,0.1396484v32.4472656h2.2236328l10.0742188-0.3476563c13.0625-0.9257813,19.59375-7.2714844,19.59375-19.0371094
			c0-7.3652344-2.1533203-12.4023438-6.4609375-15.1123047c-4.3085938-2.7099609-12.3681641-4.0644531-24.1796875-4.0644531
			C84.7011719,137.722168,82.5,137.8149414,79.2587891,137.9995117z"/>
		<path fill="#F37521" d="M92.3740234,20.9462891l-0.7646484,1.3203125
			c-4.1689453,7.2724609-7.78125,14.5454102-10.8388672,21.8178711l-0.6259766,1.5976563l-0.9023438-0.4863281
			c-1.0664063-7.0410156-3.5439453-12.6220703-7.4355469-16.7456055c-3.890625-4.1220703-8.5927734-6.1835938-14.1044922-6.1835938
			c-5.8837891,0-10.7939453,2.5708008-14.7304688,7.7124023c-4.9570313,6.3925781-7.4345703,17.2314453-7.4345703,32.5175781
			c0,13.15625,2.28125,23.4628906,6.84375,30.9199219c4.5625,7.4589844,10.8964844,11.1865234,19.0039063,11.1865234
			c6.484375,0,11.6611328-2.1650391,15.5292969-6.4970703c3.8671875-4.3300781,6.171875-10.5253906,6.9140625-18.5859375
			c0.1835938-1.9453125,0.9726563-2.9179688,2.3613281-2.9179688c1.8066406,0,2.7109375,1.5058594,2.7109375,4.515625
			c0,4.4941406-1.0195313,9.1494141-3.0585938,13.9667969c-4.3066406,10.1904297-13.2011719,15.2851563-26.6806641,15.2851563
			c-12.0439453,0-21.6088867-4.2265625-28.6962891-12.6796875c-7.0869141-8.453125-10.6308594-19.8828125-10.6308594-34.2900391
			c0-13.2939453,3.6826172-24.4345703,11.0478516-33.4208984S47.3945313,16.4995117,58.328125,16.4995117
			c5.1865234,0,11.0927734,1.2744141,17.7167969,3.8212891c3.4746094,1.3442383,6.3457031,2.0151367,8.6162109,2.0151367
			c2.4550781,0,4.6552734-0.6708984,6.6005859-2.0151367L92.3740234,20.9462891z M94.875,80.7016602
			c-0.7412109,11.4882813-3.9492188,20.2304688-9.6230469,26.2285156c-5.6748047,6-13.6074219,8.9980469-23.7978516,8.9980469
			c-7.7363281,0-14.9384766-2.3847656-21.6088867-7.15625v-0.5556641c5.9282227,3.890625,13.0854492,5.8369141,21.4702148,5.8369141
			c9.1708984,0,16.6513672-2.9414063,22.4423828-8.8242188c2.8251953-2.8720703,4.9101563-6.0917969,6.2539063-9.6582031
			c1.3427734-3.5664063,2.2460938-8.2910156,2.7089844-14.1748047l0.1396484-1.5986328L94.875,80.7016602z M72.2246094,32.9672852
			c-4.2167969-3.3813477-8.1992188-5.0727539-11.9511719-5.0727539c-11.9980469,0-17.9960938,11.4418945-17.9960938,34.324707
			c0,10.421875,1.3886719,19.0957031,4.1679688,26.0205078c2.7792969,6.9257813,6.6933594,11.4072266,11.7431641,13.4443359
			v0.6953125c-5.4658203-1.1113281-9.8310547-5.3154297-13.0976563-12.6113281
			c-3.265625-7.2949219-4.8984375-16.5244141-4.8984375-27.6884766c0-23.9472656,6.5771484-35.9223633,19.7333984-35.9223633
			c4.4472656,0,8.5458984,1.9697266,12.2988281,5.90625V32.9672852z M97.4462891,24.28125l-0.7646484,1.3203125
			c-5.0488281,8.6157227-9.0791016,16.4672852-12.0898438,23.5551758l-1.8759766-0.9042969l0.7646484-1.7363281
			c2.3154297-4.8642578,4.3535156-8.8945313,6.1142578-12.0898438l5.5585938-9.8671875l0.6943359-1.2504883L97.4462891,24.28125z"/>
	</g>
</g>
</svg>
